<svg width="32" height="32" viewBox="0 0 32 32" fill="none" xmlns="http://www.w3.org/2000/svg">
  <path fill-rule="evenodd" clip-rule="evenodd" d="M22.6274 0H9.37258L0 9.37258V22.6274L9.37258 32H22.6274L32 22.6274L32 9.37258L22.6274 0ZM7.00228 17.5401C7.20346 17.754 7.30405 18.063 7.30405 18.467C7.30405 18.8378 7.20346 19.1277 7.00228 19.3369C6.8011 19.5413 6.52113 19.6435 6.16236 19.6435C5.1967 19.6435 4.71387 19.0707 4.71387 17.9251H3.2C3.2 18.5954 3.32071 19.1848 3.56212 19.6934C3.80689 20.202 4.16063 20.6037 4.62334 20.8984C5.08605 21.1884 5.59906 21.3333 6.16236 21.3333C6.97378 21.3333 7.61923 21.079 8.0987 20.5704C8.57818 20.057 8.81792 19.3512 8.81792 18.4528C8.81792 17.6447 8.62177 16.9697 8.22947 16.4278C7.83717 15.8859 7.21184 15.432 6.35348 15.066C5.88741 14.8663 5.53367 14.6524 5.29226 14.4242C5.0542 14.1961 4.93517 13.9133 4.93517 13.5758C4.93517 13.2145 5.03743 12.9245 5.24196 12.7059C5.4465 12.4825 5.73318 12.3708 6.102 12.3708C6.48424 12.3708 6.78098 12.5039 6.99222 12.7701C7.20346 13.0315 7.30908 13.3999 7.30908 13.8752H8.81792C8.81792 13.2525 8.70392 12.6964 8.47591 12.2068C8.25126 11.7172 7.93441 11.3393 7.52534 11.0731C7.11628 10.8021 6.65022 10.6667 6.12715 10.6667C5.60744 10.6667 5.13802 10.7903 4.7189 11.0374C4.30313 11.2846 3.98292 11.6292 3.75827 12.0713C3.53697 12.5086 3.42633 13.0077 3.42633 13.5686C3.42633 14.6477 3.8421 15.5056 4.67363 16.1426C4.97876 16.3755 5.39285 16.6132 5.91591 16.8556C6.43898 17.0933 6.8011 17.3214 7.00228 17.5401ZM13.1131 12.5419H15.3562V10.8093H9.39128V12.5419H11.6042V21.1907H13.1131V12.5419ZM22.0957 16.2353C22.0957 17.2573 21.9683 18.1533 21.7135 18.9234C21.4587 19.6934 21.0932 20.2876 20.6171 20.7059C20.1443 21.1242 19.6011 21.3333 18.9875 21.3333C18.3806 21.3333 17.8391 21.1266 17.363 20.713C16.8869 20.2995 16.518 19.71 16.2565 18.9447C15.995 18.1747 15.8625 17.2906 15.8592 16.2923V15.779C15.8592 14.757 15.9883 13.8586 16.2464 13.0838C16.508 12.3042 16.8751 11.7077 17.3479 11.2941C17.824 10.8758 18.3672 10.6667 18.9774 10.6667C19.5877 10.6667 20.1292 10.8758 20.602 11.2941C21.0781 11.7077 21.4452 12.3042 21.7034 13.0838C21.965 13.8586 22.0957 14.7546 22.0957 15.7718V16.2353ZM20.5668 15.7647C20.5668 14.6762 20.4293 13.8491 20.1543 13.2834C19.8794 12.7178 19.4871 12.4349 18.9774 12.4349C18.4711 12.4349 18.0805 12.7154 17.8056 13.2763C17.5306 13.8324 17.3915 14.65 17.3881 15.7291V16.2353C17.3881 17.2953 17.5256 18.1176 17.8006 18.7023C18.0755 19.287 18.4711 19.5793 18.9875 19.5793C19.4938 19.5793 19.8828 19.2989 20.1543 18.738C20.4259 18.1723 20.5634 17.35 20.5668 16.2709V15.7647ZM24.701 21.1907V17.533H26.0237C26.8922 17.533 27.5711 17.2406 28.0607 16.656C28.5536 16.0665 28.8 15.2632 28.8 14.246C28.8 13.5758 28.6877 12.9792 28.463 12.4563C28.2384 11.9287 27.9165 11.5223 27.4974 11.2371C27.0816 10.9519 26.5988 10.8093 26.0489 10.8093H23.1921V21.1907H24.701ZM26.0489 15.8004H24.701V12.5419H26.0841C26.4563 12.5514 26.748 12.713 26.9592 13.0267C27.1705 13.3405 27.2761 13.7516 27.2761 14.2603C27.2761 14.7546 27.1705 15.1349 26.9592 15.4011C26.7513 15.6673 26.4479 15.8004 26.0489 15.8004Z" fill="#3B3B3B"/>
</svg>
